<svg width="40" height="43" viewBox="0 0 40 43" fill="none" xmlns="http://www.w3.org/2000/svg">
<path d="M0.515022 0C0.171674 0 0 0.215269 0 0.484355V42.5156C0 42.7847 0.228898 43 0.515022 43H39.485C39.7711 43 40 42.7847 40 42.5156V0.484355C40 0.161452 39.7711 0 39.485 0L0.515022 0ZM5.72246 5.38173H34.3348V16.1452H5.72246V5.38173ZM5.72246 21.5269H11.4449V26.9086H5.72246V21.5269ZM17.1674 21.5269H22.8898V26.9086H17.1674V21.5269ZM28.6123 21.5269H34.3348V37.6721H28.6123V21.5269ZM5.72246 32.2904H11.4449V37.6721H5.72246V32.2904ZM17.1674 32.2904H22.8898V37.6721H17.1674V32.2904Z" fill="#FB9039"/>
</svg>
