<svg width="53" height="51" viewBox="0 0 53 51" fill="none" xmlns="http://www.w3.org/2000/svg">
<path d="M19.712 0.859985C16.1157 0.859985 13.1732 3.62917 13.1732 7.01372V13.1675H0.683917C0.291584 13.1675 0.0954181 13.4136 0.0954181 13.7213V28.5518C0.0954181 30.2748 1.53397 31.6287 3.36486 31.6287H49.137C50.9679 31.6287 52.4064 30.2748 52.4064 28.5518V13.7213C52.4064 13.3521 52.1449 13.1675 51.8179 13.1675H39.3287V7.01372C39.3287 3.62917 36.3862 0.859985 32.7898 0.859985L19.712 0.859985ZM19.712 7.01372H32.7898V13.1675H19.712V7.01372ZM0.0954181 37.2285V49.536C0.0954181 49.8437 0.356973 50.0899 0.683917 50.0899H51.7525C52.0795 50.0899 52.341 49.8437 52.341 49.536V37.2285C51.2948 37.5978 50.2486 37.7824 49.0716 37.7824H3.29947C2.12247 37.7824 1.07625 37.5362 0.0300293 37.2285H0.0954181Z" fill="#FB9039"/>
</svg>
