<svg width="52" height="44" viewBox="0 0 52 44" fill="none" xmlns="http://www.w3.org/2000/svg">
<path d="M47.125 0H34.125C31.4336 0 29.25 2.11161 29.25 4.71429V17.2857C29.25 19.8884 31.4336 22 34.125 22H42.25V28.2857C42.25 31.7527 39.3352 34.5714 35.75 34.5714H34.9375C33.5867 34.5714 32.5 35.6223 32.5 36.9286V41.6429C32.5 42.9491 33.5867 44 34.9375 44H35.75C44.7281 44 52 36.9679 52 28.2857V4.71429C52 2.11161 49.8164 0 47.125 0ZM17.875 0H4.875C2.18359 0 0 2.11161 0 4.71429V17.2857C0 19.8884 2.18359 22 4.875 22H13V28.2857C13 31.7527 10.0852 34.5714 6.5 34.5714H5.6875C4.33672 34.5714 3.25 35.6223 3.25 36.9286V41.6429C3.25 42.9491 4.33672 44 5.6875 44H6.5C15.4781 44 22.75 36.9679 22.75 28.2857V4.71429C22.75 2.11161 20.5664 0 17.875 0Z" fill="#FB9039"/>
</svg>
